<?xml version="1.0" encoding="UTF-8" standalone="no"?>
<svg
   width="40.000679"
   height="40"
   viewBox="0 0 50.000849 50"
   fill="none"
   version="1.1"
   id="svg1383"
   xmlns="http://www.w3.org/2000/svg"
   xmlns:svg="http://www.w3.org/2000/svg">
  <defs
     id="defs1387" />
  <path
     id="path1621"
     style="fill:none;stroke-width:0.8"
     transform="scale(1.25)"
     d="m 19.242188,0.0078125 c -0.556275,0.01585 -1.087619,0.05589375 -1.574219,0.12109375 -4.5464,0.5984 -8.4997099,2.48709065 -11.6621096,5.58789065 -2.7296,2.6704 -4.5604688,5.8913781 -5.48046878,9.6425781 C 0.13019063,16.976175 -0.0072,18.213744 0,20.027344 c 0.008,3.2912 0.65511875,6.001528 2.1367188,8.986328 1.4831999,2.9696 3.8243939,5.625887 6.6835937,7.554687 3.8159995,2.572 8.6580965,3.812478 13.0292965,3.330079 5.0176,-0.5584 9.024391,-2.450294 12.400391,-5.871094 4.56,-4.6304 6.476706,-10.615463 5.503906,-17.289063 -0.5632,-3.9192 -2.804797,-8.2376498 -5.716797,-11.0312498 -2.752,-2.6327999 -6.059334,-4.423175 -9.677734,-5.23437495 -1.557,-0.3444 -3.448363,-0.51239375 -5.117187,-0.46484375 z m 1.125,2.4648437 c 0.695046,0.018909 1.396409,0.079241 2.099609,0.1816407 5.4808,0.8032 10.323231,4.346625 12.832031,9.3906251 a 17.6448,17.6448 0 0 1 1.580078,4.960937 c 0.1904,1.1784 0.1904,4.339194 0,5.433594 -0.5096,2.8936 -1.54179,5.341806 -3.27539,7.691406 -0.288,0.3984 -1.040863,1.241141 -1.664063,1.869141 l -1.134765,1.132812 0.04687,0.587891 0.04492,0.582031 -0.220703,-0.841796 c -0.2584,-1.0024 -0.485112,-1.56186 -0.820312,-2.00586 -0.136,-0.184 -0.251953,-0.374134 -0.251953,-0.427734 0.008,-0.0464 0.198393,-0.229638 0.433593,-0.398438 0.4264,-0.3064 1.010879,-0.926415 1.330079,-1.416015 0.114399,-0.16 0.274393,-0.290338 0.433593,-0.335938 0.38,-0.108 0.81371,-0.559619 0.91211,-0.949219 0.1072,-0.3752 0.06895,-0.551006 -0.189453,-0.941406 l -0.189454,-0.27539 0.167969,-0.757813 c 0.1672,-0.7504 0.166709,-0.766913 0.03711,-1.945313 a 28.536,28.536 0 0 1 -0.121093,-1.384765 c 0,-0.268 -0.586782,-1.446456 -1.050781,-2.097656 -0.7752,-1.1016 -1.064654,-1.362863 -2.189454,-1.914063 -1.308,-0.6504 -1.786175,-0.756725 -3.109375,-0.703125 -1.1552,0.0464 -2.127178,0.267313 -3.017578,0.695313 -0.8968,0.4296 -1.915684,1.448556 -2.896484,2.910156 -0.3352,0.4896 -0.357422,0.550191 -0.357422,1.02539 0,0.3672 -0.07584,0.725704 -0.273437,1.345704 -0.3344,1.0488 -0.319844,1.294881 0.160156,2.113281 0.1896,0.3224 0.341797,0.627616 0.341797,0.666015 0,0.0464 -0.09892,0.192479 -0.228516,0.330079 -0.4032,0.436 -0.394962,1.109347 0.02344,1.560547 0.2352,0.252799 0.812232,0.490624 0.957032,0.390624 0.0376,-0.0224 0.0078,-0.215475 -0.07617,-0.421874 -0.228,-0.6048 -0.166366,-0.62591 0.115234,-0.03711 0.5552,1.1792 1.306825,1.935603 2.515625,2.533203 0.912,0.444 1.6949,0.642513 2.8125,0.695313 0.5016,0.024 0.843766,0.06921 0.759766,0.09961 -0.456,0.16 -2.553931,-0.136706 -3.519531,-0.503906 l -0.501954,-0.191406 -0.128906,0.175781 c -0.2816,0.368 -0.835856,1.582953 -0.972656,2.126953 a 14.552,14.552 0 0 0 -0.236328,1.408203 c -0.152,1.432 -0.211094,1.562303 -0.371094,0.720703 -0.2656,-1.3928 -2.053437,-7.990272 -2.273437,-8.388672 -0.0304,-0.0608 -0.510054,-0.222928 -1.064453,-0.361328 -0.5552,-0.1448 -1.163916,-0.311872 -1.353516,-0.388672 -0.1824,-0.0688 -0.356506,-0.106384 -0.378906,-0.08398 -0.0232,0.0232 0.105509,0.244634 0.287109,0.490234 0.1832,0.2448 0.441325,0.619772 0.578125,0.826172 0.3576,0.5736 1.185688,2.364172 1.429688,3.076172 0.265599,0.7576 0.243712,0.811388 -0.554688,1.492188 -0.304,0.2608 -0.554688,0.528056 -0.554688,0.597656 0,0.0608 0.348991,0.444197 0.775391,0.841797 0.7368,0.696 0.768631,0.742631 0.707031,0.957031 l -0.06836,0.228516 -0.03125,-0.236329 c -0.016,-0.183999 -0.1965,-0.390868 -0.8125,-0.980468 -0.4408,-0.4056 -0.798828,-0.78881 -0.798828,-0.84961 0,-0.0536 0.273209,-0.335753 0.599609,-0.626953 0.8368,-0.7192 0.844353,-0.765684 0.501953,-1.646484 -0.5776,-1.4768 -1.815484,-3.756747 -2.271484,-4.185547 -0.1448,-0.1376 -0.199219,-0.268209 -0.199219,-0.474609 0,-0.3136 0.06983,-0.389932 0.457032,-0.519532 0.395999,-0.1304 0.783228,-0.429487 1.048828,-0.804687 0.2128,-0.2984 0.303072,-0.351156 0.888672,-0.535156 0.357599,-0.1144 0.646484,-0.239132 0.646484,-0.269532 0,-0.0384 -0.135535,-0.236347 -0.302734,-0.435546 -0.328,-0.3984 -0.387969,-0.680401 -0.167969,-0.75 0.0688,-0.0224 0.333584,-0.0614 0.583984,-0.0918 0.2512,-0.024 0.479366,-0.06078 0.509766,-0.08398 0.0304,-0.0152 -0.04557,-0.305778 -0.167969,-0.642578 C 19.0595,21.368278 18.960938,21.0456 18.960938,21 c 0,-0.0544 0.197053,-0.152328 0.439453,-0.236328 0.5408,-0.176 1.460937,-0.636516 1.460937,-0.728516 0,-0.0384 -0.281987,-0.221097 -0.617187,-0.404297 -0.6608,-0.352 -1.328869,-0.888468 -1.230469,-0.980468 0.0304,-0.0304 0.30495,-0.138469 0.59375,-0.230469 0.7304,-0.2448 1.505281,-0.603741 2.113281,-0.994141 0.2816,-0.176 0.509341,-0.33575 0.494141,-0.34375 a 87.32,87.32 0 0 0 -2.289063,-0.980469 c -0.0912,-0.0376 -0.113772,-0.08434 -0.07617,-0.152343 0.0312,-0.0624 0.533729,-0.551891 1.111329,-1.087891 0.570399,-0.5432 1.041015,-1.008662 1.041015,-1.039062 0,-0.0616 -0.472881,-0.146504 -1.863281,-0.345704 -0.5016,-0.0768 -0.942256,-0.153193 -0.972656,-0.183593 -0.0376,-0.0304 0.31139,-0.704188 0.77539,-1.492188 0.752,-1.2936 0.895513,-1.570312 0.820313,-1.570312 -0.016,0 -0.637213,0.222847 -1.382813,0.498047 -1.0872,0.3984 -1.383784,0.474437 -1.458984,0.398437 -0.168,-0.168 -0.328125,-1.432453 -0.328125,-2.564453 V 7.46875 l -0.615235,0.328125 c -0.721599,0.3912 -1.688718,1.1477813 -2.136718,1.6757812 -0.1672,0.2064 -0.342647,0.3769532 -0.373047,0.3769532 -0.0376,0 -0.325144,-0.3522625 -0.652344,-0.7890625 -0.5624,-0.7496 -1.511941,-1.8144531 -1.619141,-1.8144531 -0.0304,0 -0.09112,0.3365875 -0.136718,0.7421874 -0.1368,1.148 -0.540682,2.5488278 -0.738282,2.5488278 -0.0528,0 -0.416687,-0.151937 -0.804687,-0.335937 -0.624,-0.2912001 -1.5742281,-0.5820314 -1.9238281,-0.5820314 -0.0912,0 -0.046172,0.1378438 0.1738281,0.5898434 0.3344,0.6808 0.6391625,1.744129 0.6015625,2.111328 l -0.023437,0.246094 -0.6835938,0.05274 c -1.9919997,0.1536 -2.9277343,0.245603 -2.9277343,0.283203 0,0.0312 0.3345406,0.389747 0.7441406,0.810547 0.768,0.7808 1.3313687,1.61585 1.2929687,1.90625 -0.0152,0.1072 -0.4027718,0.429081 -1.2011718,0.988281 -0.6464,0.4512 -1.1859719,0.857284 -1.2011719,0.896484 -0.0152,0.0376 0.069806,0.09069 0.1914063,0.121094 0.8135999,0.176 1.1623718,0.290984 1.4511718,0.458984 0.3952,0.2376 0.806119,0.59046 1.0117188,0.88086 l 0.1523437,0.214844 -0.8515625,0.847656 c -0.7152,0.72 -0.8372937,0.866372 -0.7460937,0.951172 0.0608,0.0536 0.5179312,0.228059 1.0195312,0.380859 0.5015998,0.1536 0.9420688,0.315116 0.9804688,0.353516 0.0376,0.0384 -0.023169,0.428843 -0.1679688,0.964843 -0.128,0.4976 -0.2118531,0.932304 -0.1894531,0.970704 0.0384,0.0688 1.2932469,0.0084 1.4980469,-0.06836 0.1904,-0.0696 0.2667125,0.11395 0.3203121,0.71875 0.0296,0.352 0.07507,0.650816 0.105469,0.666016 0.0608,0.0384 0.912109,-0.329025 0.91211,-0.390625 0,-0.0224 -0.0991,-0.183375 -0.220704,-0.359375 -0.5096,-0.7496 -0.8592121,-1.691372 -1.1328121,-3.076172 -0.1824,-0.88 -0.2650281,-1.722656 -0.1738281,-1.722656 0.0304,0 0.082881,0.245722 0.1132812,0.544922 0.152,1.706399 0.934038,3.871796 1.648437,4.591796 0.1824,0.184 0.578985,0.443141 0.958985,0.619141 l 0.638672,0.298828 -0.02344,0.283203 -0.02148,0.283203 -1.689453,0.566407 L 9.4648438,27.169922 9.3125,27.636719 a 110.696,110.696 0 0 0 -0.7675781,2.646484 c -0.6231998,2.1816 -0.8119031,2.734384 -0.7207031,2.083985 0.0376,-0.3216 0.021966,-0.352451 -0.3652344,-0.78125 -2.4256,-2.6328 -3.9230125,-5.717229 -4.5078125,-9.298829 -0.2208,-1.3088 -0.1988906,-4.110884 0.037109,-5.396484 C 3.6498812,13.277825 5.1088938,10.3301 7.4960938,7.8125 10.902294,4.2299 15.501859,2.3402906 20.367188,2.4726562 Z M 12.261719,27.070312 c 0.0384,0 0.0012,0.144313 -0.08203,0.320313 -0.5472,1.1408 -1.5207,3.873931 -1.4375,4.019531 0.0376,0.0688 0.365668,0.381525 0.730468,0.703125 0.3728,0.3216 0.684019,0.620228 0.699219,0.673828 0.0224,0.0536 -0.09,0.222013 -0.25,0.382813 -0.168,0.176 -0.228344,0.214009 -0.152344,0.09961 0.296,-0.4672 0.317981,-0.405187 -0.449219,-1.117187 -0.517599,-0.4824 -0.720703,-0.72001 -0.720703,-0.84961 0,-0.3984 1.50291,-4.232422 1.66211,-4.232422 z" />
</svg>
