<?xml version="1.0" encoding="UTF-8" standalone="no"?>
<!-- Generator: Adobe Illustrator 16.0.0, SVG Export Plug-In . SVG Version: 6.00 Build 0)  -->

<svg
   version="1.1"
   id="Layer_1"
   x="0px"
   y="0px"
   width="999.99792"
   height="293.06512"
   viewBox="0 0 999.99792 293.06513"
   enable-background="new 0 0 1000 293.064"
   xml:space="preserve"
   xmlns="http://www.w3.org/2000/svg"
   xmlns:svg="http://www.w3.org/2000/svg"><defs
   id="defs1097" />
<path
   id="path1408"
   style="fill:none;stroke:none;stroke-width:1.0015748;stroke-miterlimit:4;stroke-dasharray:none;fill-opacity:1"
   d="m 668.19727,0.01953125 c -0.79449,0.09301172 -1.6158,0.51989061 -2.43555,1.30664065 -1.779,1.729 -3.4652,3.7013281 -4.6582,5.8613281 -2.347,4.246 -5.04583,8.180484 -8.29883,11.771484 -2.267,2.504 -3.2331,5.487485 -3.3711,8.896485 -0.256,6.625 -1.76836,12.832703 -6.56836,17.845703 -1.368,1.43 -2.56687,3.041453 -3.67187,4.689453 -1.112,1.636 -2.27816,3.327922 -2.91016,5.169922 -1.504,4.339 -3.1402,8.708797 -3.9082,13.216797 -1.018,6 -2.59159,11.809015 -4.18359,17.666015 -1.323,4.864 -3.58514,8.859141 -6.99414,12.369141 -2.16,2.223 -3.67129,4.85858 -4.61329,7.76758 -1.131,3.484 -2.11754,7.00587 -3.06054,10.54687 -0.425,1.611 -0.71805,3.27764 -0.87305,4.93164 -0.725,7.917 -1.29951,15.8481 -2.10351,23.7461 -0.194,1.873 -0.0242,3.95434 -1.32422,5.65234 l -0.55469,-0.48633 c -2.073,-2.854 -2.32358,-6.15729 -2.64258,-9.52929 -0.737,-7.905 -1.54261,-15.79096 -1.22461,-23.75196 0.094,-2.404 2.2e-4,-4.81475 0.0742,-7.21875 0.063,-1.967 -0.76105,-3.42756 -2.24805,-4.60156 -0.567,-0.443 -1.15354,-0.85575 -1.81054,-1.34375 0.119,-1.48 0.23756,-2.93481 0.35156,-4.38281 0.268,-3.534006 -0.214,-6.817205 -2.5,-9.783205 -0.817,-1.049 -1.17316,-2.709984 -1.16016,-4.083984 0.03,-3.546 0.36153,-7.099625 0.64453,-10.640625 0.218,-2.935 -0.83871,-5.319938 -2.88672,-7.335938 -0.524,-0.506 -1.20507,-0.916765 -1.58007,-1.509766 -0.586,-0.924 -1.43591,-1.992125 -1.37891,-2.953124 0.18,-3.428 0.48044,-6.881235 1.14844,-10.240235 0.524,-2.648 1.72837,-5.151719 2.48437,-7.761719 1.361,-4.721 2.78538,-9.421937 3.85938,-14.210937 0.55,-2.448 -0.66947,-4.158891 -2.73047,-5.087891 -1.973,-0.906 -3.62217,-0.688203 -5.20117,1.466797 -2.717,3.697 -5.25641,7.548 -7.56641,11.5 -1.018,1.754 -1.43658,3.901781 -1.89258,5.925781 -0.756,3.397 -1.56656,6.775657 -4.10156,9.347657 -2.742,2.785 -4.24084,6.173953 -5.21484,9.876953 -0.156,0.612 -0.46908,1.187218 -0.83008,2.074218 -1.711,-4.408 -2.41014,-4.839125 -6.11914,-3.953124 -0.132,-0.599 -0.18111,-1.23111 -0.41211,-1.78711 -1.03,-2.491 -2.99084,-2.877719 -4.83985,-0.886719 -0.774,0.825 -1.5604,1.773407 -1.9414,2.816407 -1.43,3.928 -2.87224,7.862953 -3.99024,11.876953 -1.111,4.027 -1.6739,8.203328 -2.7539,12.236328 -2.385,8.879 -4.1388,17.945393 -7.9668,26.400393 -0.468,1.03 -0.64447,2.20412 -0.85547,3.32812 -1.111,6.051 -0.94111,12.07099 0.33789,18.08399 1.53,7.155 1.37972,14.34701 0.26172,21.54101 -0.712,4.651 -3.43986,8.24064 -6.38086,11.68164 -4.658,5.438 -6.69428,11.69542 -6.11328,18.85743 0.28,3.484 1.01788,6.79504 2.42188,9.99804 2.437,5.531 3.33681,11.19264 1.13281,17.05664 -0.369,0.975 -0.63867,2.01202 -0.76367,3.04102 -0.331,2.598 -0.43,5.1465 0.75,7.6875 0.669,1.455 0.96847,3.20317 0.98047,4.82617 0.044,6.388 -0.10615,12.76925 -0.11915,19.15625 -0.006,1.13 0.20472,2.29177 0.51172,3.38477 0.431,1.586 1.35483,2.88534 3.04883,3.27734 1.834,0.425 2.95825,-0.77345 3.90625,-2.06445 1.698,-2.317 2.89755,-4.87882 3.18555,-7.75782 0.525,-5.176 2.22409,-9.95726 4.24609,-14.69726 0.912,-2.159 1.28641,-4.63805 1.44141,-6.99805 0.3,-4.633 -0.71769,-9.15311 -1.67969,-13.66211 -0.237,-1.105 -0.41075,-2.3123 -0.21875,-3.4043 0.956,-5.376 3.01156,-10.35148 7.10156,-14.02148 3.365,-3.041 4.7636,-6.47737 4.1836,-10.85937 -0.132,-1.043 -0.0505,-2.11677 -0.26953,-3.13477 -0.692,-3.153 -0.28118,-6.19469 0.42382,-9.30469 0.962,-4.277 2.0483,-8.57769 2.4043,-12.92969 0.593,-7.22599 1.82834,-14.29349 3.52734,-21.3125 1.18601,-4.871 1.20671,-9.70357 -0.52929,-14.51757 -1.686,-4.683 -1.53625,-9.42897 0.0937,-14.16797 0.812,-2.367 1.26101,-4.85147 2.04101,-7.230471 0.862,-2.635 1.46216,-5.432328 3.91016,-8.111328 0.199,1.518 0.47269,2.498125 0.42969,3.453125 -0.169,3.135 -0.38722,6.263044 -0.69922,9.373044 -0.393,4.04 0.46873,7.50605 4.05273,9.87305 1.592,1.042 2.4098,2.54653 2.7168,4.39453 0.317,1.855 1.24784,3.60299 2.83984,4.33399 3.771,1.742 4.40196,4.98204 4.75196,8.49804 l 0.0937,0.9375 c 0.743,6.256 1.84217,12.35639 4.95117,18.02539 1.256,2.286 1.42647,5.18908 1.98047,7.83008 0.375,1.73 0.21886,3.63456 0.88086,5.22656 1.305,3.165 1.08686,6.30646 0.75586,9.56446 -0.681,6.938 1.19193,10.94606 7.33593,12.16406 1.518,0.299 2.36577,1.22401 2.50977,2.79101 0.156,1.55501 0.3615,3.10907 0.5625,4.66407 0.524,4.059 1.15545,8.10467 3.68945,11.51367 1.48,1.992 3.37185,3.14297 5.96485,2.54297 2.135,-0.5 3.90167,-2.67903 4.13867,-5.33203 0.225,-2.398 0.41925,-4.82189 0.28125,-7.21289 -0.375,-6.519 1.53762,-12.36828 4.64062,-17.98829 0.887,-1.60499 1.58499,-3.45362 1.83399,-5.26562 0.45,-3.303 0.60703,-6.65995 0.70703,-10.00195 0.181,-6.031 1.26814,-11.66977 6.11914,-15.88477 l 0.63086,-0.69922 c 4.358,-5.969 6.82492,-12.41989 5.29492,-19.96289 -1.168,-5.794 -0.16309,-11.43753 1.37891,-17.01953 0.3,-1.093 0.74872,-2.14866 1.13672,-3.22266 0.53,1.287 0.53125,2.43599 0.53125,3.58399 0.007,3.547 1.09153,6.56269 4.14453,8.67969 0.763,0.53 1.40643,1.25579 2.02343,1.96679 1.512,1.755 2.31725,3.73403 1.65625,6.08203 -0.612,2.216 -1.23125,4.42686 -1.90625,6.63086 -1.311,4.29 -3.22742,8.49786 -3.85742,12.88086 -0.893,6.219 -0.58706,12.54364 1.83594,18.55664 0.493,1.243 0.99322,2.57263 1.07422,3.89063 0.162,3.029 0.24964,6.08151 0.0566,9.10351 -0.668,10.19 2.10927,19.2315 8.69726,27.0625 1.71101,2.023 1.86061,4.15175 1.22461,6.71875 -0.868,3.521 -1.4486,7.14768 -1.72461,10.76368 -0.30499,3.884 1.29893,6.93196 5.16993,8.41797 l 0.53711,0.5625 c 0,1.973 0.0193,4.06343 -0.0117,6.14843 -0.031,2.772 0.88637,5.16542 2.98437,6.98242 1.648,1.437 3.34103,2.88968 5.20703,4.01368 1.905,1.155 2.47813,2.63637 2.20313,4.73437 -0.262,1.967 -0.36119,3.9515 -0.49219,5.9375 -0.106,1.666 0.31283,3.13356 1.92383,3.97656 1.492,0.78 2.58417,-0.12368 3.70117,-0.92968 l 0.60547,-0.0371 0.40039,0.4375 c 1.829,1.842 3.00895,2.15251 4.62695,1.22851 1.61,-0.924 1.94638,-2.27114 1.35938,-4.61914 -0.351,-1.399 -0.73295,-2.88501 -0.62695,-4.29101 0.399,-5.251 -1.0546,-9.86547 -3.9336,-14.23047 -2.935,-4.445 -4.4024,-9.24797 -2.1914,-14.54297 l 0.3496,-1.20508 c 1.299,-4.771 0.70474,-9.17889 -2.82226,-12.83789 -2.647,-2.754 -3.37166,-5.91287 -2.59766,-9.54688 1.023,-4.776 0.6866,-9.20432 -2.1914,-13.48632 -2.491,-3.716 -2.92141,-7.81689 -0.94141,-12.21289 1.673,-3.69 2.76617,-7.67457 3.82617,-11.60157 0.825,-3.06 0.83078,-6.30129 -0.32422,-9.27929 -0.937,-2.429 -0.69232,-4.63244 -0.11132,-7.02344 0.618,-2.522 0.96182,-5.12608 1.29882,-7.70508 0.262,-1.985 -0.39986,-3.74151 -1.88086,-5.10351 -1.948,-1.785 -2.62087,-4.00811 -2.29687,-6.53711 0.388,-2.904 0.94764,-5.77527 -0.56836,-8.57227 -0.269,-0.487 -0.11136,-1.23633 -0.0684,-1.86133 0.375,-5.045 -0.89891,-9.7415 -2.87891,-14.3125 -1.136,-2.635001 -1.6154,-5.405482 -1.3164,-8.271482 0.575,-5.563 0.22481,-11.115406 -0.74219,-16.566406 -1.043,-5.863 -2.68587,-11.607453 -3.92187,-17.439453 -0.431,-2.017 -0.71094,-4.139641 -0.58594,-6.181641 0.255,-4.165 0.75454,-8.32275 1.31054,-12.46875 0.675,-4.996 1.89874,-9.841219 4.05274,-14.449219 2.067,-4.458 3.98339,-8.990578 5.90039,-13.517578 0.687,-1.636 1.27255,-3.326781 1.68555,-5.050781 0.5,-2.073 0.4757,-4.1657812 -0.7793,-6.0507812 -1.04188,-1.56500008 -2.29108,-2.33470709 -3.61523,-2.17968755 z M 63.458984,18.984375 c -3.38867,-0.172553 -6.240562,1.226188 -8.960937,3.351563 -3.465,2.704 -6.991281,5.338078 -10.613281,7.830078 -4.758,3.278 -9.909938,4.918453 -15.710938,3.064453 l -1.224609,-0.25 c -2.36,-0.743 -4.488297,-0.130141 -6.654297,0.880859 -3.49,1.636 -6.394047,3.970328 -8.873047,6.861328 -1.4550002,1.705 -2.9355937,2.354219 -5.1835938,1.324219 -1.998,-0.906 -3.1525624,-0.530891 -4.1015624,1.037109 -2.27200008,3.753 -3.7413438,9.953829 0.9726562,14.423828 0.762,0.718 1.5240781,1.436516 2.3300781,2.103516 3.266,2.704 3.7089063,6.099453 2.5039063,9.939453 -0.524,1.692 -1.1059688,3.391953 -1.4179688,5.126953 -1.268,7.149 -0.7111877,13.792532 5.3828124,18.894532 1.273,1.062 2.360906,2.391843 3.378906,3.714843 1.823,2.367 3.197188,4.883611 2.367188,8.099611 -0.625,2.422 -0.893859,4.93066 -1.505859,7.34766 -0.519001,2.042 -0.5185,3.88303 0.6875,5.70703 0.431,0.649 0.737109,1.58007 0.662109,2.33007 -0.199,1.96 0.2195,3.7269 1.0625,5.4629 0.906,1.854 0.978578,3.69781 0.392578,5.75781 -0.962,3.359 -0.592563,6.63098 1.773437,9.45898 1.011,1.205 1.922594,2.4786 2.933594,3.6836 1.505,1.786 2.248969,3.67817 1.542969,6.07617 -0.799,2.71 -0.38025,5.29348 0.84375,7.89648 2.598,5.538 4.283594,11.40888 4.308594,17.54688 0.006,3.479 0.336953,7.11865 -1.748047,10.34765 -1.761,2.717 -0.756985,5.45535 1.041016,7.52735 2.498,2.885 3.666062,6.27661 4.914062,9.72461 0.587,1.63 0.451203,3.01698 -0.466797,4.45898 -2.754,4.339 -2.905109,8.99658 -1.787109,13.89258 0.787,3.44 2.335984,6.49948 4.208984,9.39648 1.336,2.066 2.339844,4.20133 2.714844,6.61133 0.313,2.048 1.124047,3.76595 2.748047,5.12695 0.512,0.431 1.012359,1.15583 1.068359,1.79883 0.337,3.408 1.147969,6.76863 0.167969,10.26563 -0.999,3.552 -0.174594,5.43819 3.066406,7.36719 2.173,1.29199 2.972656,3.12878 3.097656,5.42578 0.094,1.773 -0.0255,3.56684 0.0625,5.33984 0.175,3.134 1.128954,5.9635 3.626953,8.0625 1.130001,0.949 2.349266,1.92305 3.947266,1.24805 1.629,-0.674 2.291266,-2.13588 2.322266,-3.79688 0.043,-1.979 -0.05064,-3.97803 -0.181641,-5.95703 -0.225,-3.452 -0.09973,-6.73069 3.447266,-8.67969 l 0.46289,-0.41797 c 3.722,-3.689 4.108438,-7.56153 1.523438,-12.14453 -1.898,-3.372 -2.76636,-6.95006 -1.068359,-10.78906 0.668,-1.512 1.225749,-3.17945 1.34375,-4.81445 0.105999,-1.599 -0.03847,-3.41646 -0.730469,-4.81446 -1.343,-2.697 -3.109344,-5.19546 -4.777344,-7.73046 -2.616,-3.971 -4.095297,-8.02097 -1.279297,-12.54297 l 0.386719,-0.85547 c 2.672,-4.876 2.909672,-9.74627 -0.111328,-14.57227 -0.924,-1.475 -1.04286,-2.89095 -0.0059,-4.37695 1.929,-2.735 1.547969,-5.47153 0.04297,-8.26953 -0.893,-1.648 -1.667969,-3.38353 -2.292969,-5.14453 -1.199,-3.372 -0.110703,-5.42075 3.904297,-6.84375 1.592,1.735 3.308141,3.70203 5.119141,5.58203 2.691,2.784 6.037375,3.85869 9.734375,2.80469 2.785,-0.793 4.434062,0.36215 5.789062,2.41015 1.442,2.186 2.666485,4.50825 4.146485,6.65625 1.18,1.704 2.465843,3.38264 3.964843,4.80664 1.567,1.505 2.790422,1.30497 4.357422,-0.20703 2.91,-2.833 3.5335,-2.88319 6.3125,0.008 1.524006,1.605 3.166846,2.74761 5.464846,2.47461 1.717,-0.213 2.81023,0.50477 3.49023,2.00977 1.455,3.234 3.01556,6.42512 4.35157,9.70312 1.674,4.121 4.43968,5.41843 8.42968,3.73243 0.574,-0.243 1.13666,-0.52372 1.72266,-0.76172 2.254,-0.911 2.48434,-0.95649 3.77734,1.22851 1.592,2.691 3.04877,5.4785 4.38477,8.3125 1.792,3.779 4.73879,6.25608 8.71679,6.95508 2.422,0.431 3.69593,1.56916 4.66993,3.53516 0.506,1.031 1.11704,2.01687 1.62304,3.04687 2.348,4.764 5.0081,9.21052 10.4961,10.97852 l 1.04883,0.67383 c 2.704,1.873 5.25845,3.81354 5.43945,7.56054 0.187,3.723 1.71065,7.08152 3.09765,10.47852 0.94901,2.317 2.32846,4.18381 4.56446,5.38281 1.817,0.98 3.05334,2.44202 3.77734,4.41602 0.693,1.86 1.53016,3.67622 2.41016,5.44922 1.23,2.461 3.4652,3.99112 5.0332,3.57812 1.63,-0.431 2.49116,-2.22278 2.41016,-5.30078 -0.031,-1.349 -0.72503,-2.84663 -0.33203,-4.01563 1.007,-2.99 0.13945,-5.81901 -0.31055,-8.66601 -0.612,-3.877 -2.1977,-7.37321 -4.9707,-10.2832 -3.334,-3.527 -5.36964,-7.60546 -5.68164,-12.56446 -0.362,-5.695 -3.62688,-9.44731 -8.79688,-11.44531 -1.699,-0.661 -2.90384,-1.55452 -3.71484,-3.10352 -0.968,-1.849 -2.07391,-3.6455 -2.87891,-5.5625 -1.024,-2.429 -2.80889,-4.0637 -5.21289,-4.5957 -2.804,-0.631 -4.0402,-2.33584 -4.6582,-4.83984 -0.231,-0.918 -0.54364,-1.81705 -0.68164,-2.74805 -0.942,-6 -4.22024,-10.39469 -9.36524,-13.42969 -1.642,-0.974 -2.46037,-2.32976 -3.23437,-4.00976 -1.574,-3.403 -3.01099,-7.02996 -5.33399,-9.87696 -3.31,-4.053 -7.47347,-7.17651 -13.35547,-4.85351 l -0.74218,-0.20508 c -0.711,-1.492 -1.35491,-3.15402 -2.25391,-4.66602 -2.198,-3.665 -3.63436,-3.98823 -7.31836,-1.86523 l -0.50586,0.0312 c -0.319,-0.662 -0.66144,-1.39305 -1.02344,-2.12305 -1.261,-2.522 -2.39117,-5.12682 -3.82617,-7.54883 -1.287002,-2.174 -2.841811,-4.1469 -5.882811,-4.0039 -0.774,0.037 -1.580265,-0.68613 -2.947265,-1.32813 1.53,-1.063 2.322375,-1.76779 3.234375,-2.21679 2.841,-1.418 4.988496,-3.47957 6.062501,-6.47657 0.487,-1.349 1.39433,-2.09765 2.61133,-2.47265 1.492,-0.456 3.02717,-0.862 4.57617,-1 4.171,-0.375 6.9378,-2.85886 8.9668,-6.13086 2.092,-3.372 3.6332,-7.06874 4.2832,-11.05274 0.331,-2.061 0.6934,-3.9335 2.81641,-5.1875 1.00499,-0.593 1.63004,-2.16215 1.99804,-3.41015 0.45,-1.586 0.644,-3.30317 0.625,-4.95117 -0.031,-2.866 0.6861,-5.26244 2.7461,-7.39844 3.772,-3.877 4.83898,-8.673501 3.95898,-13.937501 -0.712,-4.252 -1.16008,-8.417922 0.41992,-12.669922 1.879,-5.033 0.67895,-9.508438 -3.62304,-12.898438 -1.31701,-1.037 -1.80508,-2.179484 -1.58008,-3.771484 0.137,-0.931 0.23239,-1.874406 0.27539,-2.816406 0.15,-3.228 0.33647,-6.455453 0.35547,-9.689453 0,-0.887 -0.31375,-1.936579 -0.84375,-2.642578 -3.74,-4.964 -6.74353,-6.480672 -12.01953,-4.638672 -1.08701,0.381 -2.17974,0.800609 -3.30274,0.974609 -1.817,0.299 -2.4603,-0.287187 -2.6543,-2.117187 -0.137,-1.349 -0.15664,-2.722875 -0.43164,-4.046876 -0.55,-2.777999 -2.15381,-4.127343 -5.00781,-4.277343 -1.037,-0.057 -2.10309,-0.0047 -3.12109,0.195312 -3.153007,0.618 -5.863831,0.09392 -8.423831,-2.080078 -1.798,-1.542 -4.021391,-2.615562 -6.150391,-3.726562 -3.703,-1.936 -7.517312,-3.660625 -11.195312,-5.640625 -2.272,-1.236 -4.626641,-1.885516 -7.181641,-1.978516 -1.249,-0.05 -2.533813,0.12525 -3.757813,-0.09375 C 64.438063,19.065 63.94308,19.009025 63.458984,18.984375 Z m -2.341796,39.787109 c 0.64489,-0.05862 1.311046,-0.04856 1.998046,0.02344 1.773,0.181 3.521063,0.605219 5.289063,0.699219 2.285,0.125 4.572141,0.03711 7.119141,0.03711 4.995,9.072 7.137078,10.159328 14.830078,7.361328 1.848,1.867 3.927265,3.559469 2.572265,6.855469 -0.618,1.518 -0.05656,3.135344 1.023438,4.402344 1.486,1.755 2.971562,3.515812 4.601562,5.132812 1.105,1.105 2.454659,1.967938 3.722659,2.960938 -0.812,1.342 -1.20025,2.052984 -1.65625,2.708984 -1.854007,2.679 -2.222085,4.551328 -0.20508,6.861328 2.785,3.178 1.32316,6.526187 1.16016,9.867187 l -0.39258,0.82422 c -1.985007,2.236 -4.009284,4.45136 -5.988284,6.69336 -1.96,2.217 -2.546093,4.9883 -2.996094,7.7793 -0.262,1.648 -0.35614,3.33037 -0.61914,4.98437 -0.346,2.141 -1.250438,4.01417 -3.148438,5.20117 -0.649,0.412 -1.474187,0.581 -2.242187,0.75 -1.705,0.399 -3.483672,0.56719 -5.138672,1.11719 -1.873,0.625 -3.728172,1.41077 -5.451172,2.38477 -1.324,0.756 -2.603594,1.76073 -3.558594,2.92773 -1.374,1.692 -2.990172,2.86691 -5.201171,3.75391 -0.75,-0.63 -1.467547,-1.37536 -2.310547,-1.94336 -3.697,-2.492 -5.931766,-2.67108 -8.884766,-0.45508 -0.806,0.606 -1.749797,1.01115 -3.341797,1.91016 0.3,-1.97301 0.381891,-3.25857 0.712891,-4.47657 0.306,-1.099 0.929937,-2.10373 1.335937,-3.17773 1.249,-3.297 0.867422,-4.67689 -2.142578,-6.58789 -1.236,-0.78 -1.705828,-1.67946 -1.673828,-3.06446 0.05,-2.092 0.01886,-4.19106 0.0059,-6.28906 -0.012,-3.091 -1.242953,-5.39997 -4.126953,-6.79297 -1.936,-0.937 -2.103906,-1.61176 -1.628906,-3.75976 0.299,-1.311 0.549219,-2.65996 0.699219,-4.00196 0.531,-4.521 -1.728781,-7.668652 -5.050781,-10.347652 -0.568,-0.456 -1.147907,-1.322234 -1.128907,-1.990234 0.075,-3.203 -0.994281,-6.407047 0.261719,-9.623047 0.793,-2.042 -0.498766,-3.678094 -1.884766,-4.996094 -2.173,-2.048 -2.429578,-4.531797 -1.892578,-7.216797 0.443,-2.26 1.479094,-2.942859 3.746094,-2.630859 0.618,0.094 1.269328,0.10625 1.861328,0.28125 5.146,1.555 9.19725,-0.397922 12.78125,-3.919922 0.593,-0.587 1.217828,-1.156859 1.798828,-1.755859 1.47525,-1.527 3.20986,-2.312407 5.144532,-2.488282 z m 97.054692,2.634766 c -0.19292,-0.0056 -0.3885,0.0028 -0.58594,0.02539 -2.41,0.275 -4.65228,1.162547 -6.36328,3.060547 -1.911,2.123 -2.57777,5.436265 -1.00977,7.822265 1.405,2.111 0.99183,3.803203 -0.0762,5.783203 -1.093,2.017 -2.12888,4.10825 -2.79688,6.28125 -0.894,2.954 -0.51959,5.837828 1.94141,8.048828 1.543,1.377 3.17834,2.656891 4.77734,3.962891 2.448,1.998 5.30052,2.722156 8.22852,1.660156 3.022,-1.093 4.47784,-3.628359 4.71484,-6.818359 0.318,-4.283 0.93094,-8.477969 1.96094,-12.667969 1.105,-4.508 -1.64278,-7.299609 -6.67578,-6.599609 0.269,-1.511 0.54364,-2.709735 0.68164,-3.927735 0.41062,-3.383437 -1.9032,-6.54689 -4.79687,-6.630859 z m 738.9082,2.546875 c -0.898,0.306 -1.89713,1.453625 -2.07813,2.390625 -0.324,1.705 -0.1305,3.515063 -0.0625,5.289062 0.175,5.414001 0.39447,10.840657 0.60547,16.347657 -3.409,0.762 -4.23401,3.033859 -4.04101,5.755859 0.263,3.641 0.68661,7.263762 1.09961,10.884762 0.237,2.073 0.76807,4.12136 0.83007,6.19336 0.113,4.077 0.0436,8.16714 -0.0254,12.24414 -0.074,4.571 0.66872,8.99228 2.63672,13.11329 1.636,3.45799 2.65327,7.02889 2.82227,10.83789 0.094,1.98 0.20067,3.97312 0.13867,5.95312 -0.057,1.96 0.6532,3.50053 2.1582,4.64453 1.049,0.793 2.24824,1.38555 3.99024,2.43555 -1.361,4.938 -2.61607,10.00237 -4.16407,14.98437 -1.479,4.783 -3.48618,9.37354 -2.11718,14.64454 0.623,2.37899 -0.33013,3.35292 -2.70313,4.16992 -1.479,0.513 -3.02728,0.84511 -4.48828,1.41211 -3.791,1.479 -7.65087,2.83381 -11.29687,4.63281 -3.141,1.555 -3.32161,3.54611 -1.09961,6.28711 l 0.48046,0.69336 -0.36132,0.58789 c -0.706,0.437 -1.43083,0.85337 -2.17383,1.23437 -4.739,2.454 -8.56631,5.98916 -11.94531,10.03516 -2.291,2.747 -2.3278,4.59544 -0.4668,7.39844 2.167,3.253 2.115,4.33968 -0.75,6.92968 -3.484,3.16 -7.05663,6.22758 -10.64063,9.26758 -1.623,1.38 -2.99709,2.86088 -3.74609,4.92188 -0.25,0.692 -0.85505,1.5219 -1.49805,1.7539 -3.797,1.379 -6.16957,4.19494 -8.01757,7.58594 -1.643,3.022 -3.84011,5.48317 -6.91211,7.07617 -1.661,0.854 -3.47157,1.43566 -5.10157,2.34766 -7.287,4.077 -13.26956,9.82101 -19.22656,15.54102 -1.368,1.312 -2.17184,3.29003 -2.96484,5.08203 -0.831,1.854 -1.2296,3.83964 0.6914,5.43164 1.618,1.336 3.54589,1.34314 5.83789,-0.006 l 1.28125,-0.89844 c 4.245,-3.565 8.42233,-7.20459 12.73633,-10.68359 1.6,-1.293 3.3965,-2.55346 5.3125,-3.18946 3.747,-1.249 7.6251,-2.14372 11.4961,-3.01172 4.184,-0.949 7.82437,-2.65875 10.85937,-5.84375 4.033,-4.246 8.30514,-8.26714 12.49414,-12.36914 0.668,-0.649 1.38669,-1.30529 2.17969,-1.77929 2.709,-1.636 4.68722,-3.9585 5.82422,-6.8125 2.011,-5.07 5.35626,-9.19086 8.82226,-13.25586 1.555,-1.83 3.27757,-3.53513 4.72657,-5.45313 0.919,-1.211 1.762,-2.62684 2.125,-4.08984 1.148,-4.521 3.73307,-7.82856 7.58007,-10.35156 5.332,-3.509 10.5631,-7.13746 15.8711,-10.68946 2.322,-1.549 4.02025,-3.57817 5.28125,-6.07617 0.793,-1.567 1.80664,-3.06492 2.93164,-4.41992 3.228,-3.903 7.36586,-6.313 12.25586,-7.75 7.842,-2.304 13.41731,-7.46144 16.94531,-14.77344 0.925,-1.91 2.32834,-3.20228 4.02734,-4.23828 1.148,-0.712 2.40388,-1.28772 3.67188,-1.76172 3.684,-1.387 6.81962,-3.57725 9.76562,-6.15625 1.725,-1.511 3.54774,-3.00231 5.55274,-4.07031 6.068,-3.209 11.42467,-7.36778 16.38867,-12.05078 2.892,-2.722 5.65275,-5.60058 8.34375,-8.51758 1.72701,-1.856 1.23361,-3.64919 -1.02734,-4.74219 -1.467,-0.711 -2.8711,-0.37329 -4.2461,0.22071 -3.54,1.53 -7.13226,2.97117 -10.57226,4.70117 -2.223,1.111 -4.56819,2.34837 -6.24219,4.10937 -5.239,5.532 -12.78039,7.54164 -18.40039,12.43164 l -0.5625,0.27344 c -5.033,2.029 -9.97372,4.35828 -15.13672,5.98828 -4.502,1.418 -9.12811,2.27303 -12.16211,6.58203 -0.075,-1.123 0.0239,-2.03604 0.33594,-2.87304 0.925,-2.466 0.5002,-4.73772 -0.8418,-6.88672 -0.993,-1.598 -2.12337,-3.11571 -3.10937,-4.72071 -0.476,-0.768 -1.06378,-1.66718 -1.05078,-2.49218 0.051,-2.054 -0.86077,-3.54514 -2.00977,-5.11914 -0.737,-1.03 -1.34191,-2.42302 -1.37891,-3.66602 -0.194,-6.475 -0.16406,-12.94997 -0.28906,-19.41797 -0.063,-3.259 -1.46717,-5.79039 -4.32617,-7.52539 -0.831,-0.506 -1.76091,-1.37991 -2.00391,-2.2539 -1.736,-6.326 -5.54503,-12.001396 -5.83203,-18.775396 -0.038,-0.718 -0.24986,-1.454906 -0.50586,-2.128906 -2.061,-5.37 -4.04025,-10.770594 -6.28125,-16.058594 -0.924,-2.186 -2.35962,-4.190812 -3.76562,-6.132812 -0.537,-0.725 -1.86161,-1.591047 -2.47461,-1.373047 z m -619.60742,2.431641 c -1.27307,-0.0757 -2.68589,0.382093 -4.07227,1.433593 -0.668,0.5 -1.32955,0.999078 -1.93555,1.455079 -3.709,-0.937 -4.42178,-0.836063 -6.05078,1.585937 -0.731,1.087 -1.26783,2.447234 -1.42383,3.740234 -0.206,1.854 0.0751,3.759532 0.0371,5.644532 -0.105,5.845 0.39897,11.807953 -0.58203,17.501953 -1.273,7.380006 -2.94636,14.760266 -5.69336,21.822266 -0.824,2.116 -1.07393,4.45836 -1.58593,6.69336 -0.481,2.129 -0.83175,4.29695 -1.46875,6.37695 -0.993,3.284 -2.26596,6.4862 -3.25196,9.78321 -0.343,1.162 -0.36289,2.50351 -0.21289,3.72851 0.25,2.022 1.45535,3.47209 3.40235,4.12109 1.755,0.587 3.03551,-0.32351 4.10351,-1.60351 1.261,-1.53 2.48535,-3.09238 3.77734,-4.60938 0.556,-0.65 1.21699,-1.20568 1.83399,-1.80468 l 0.74414,0.41797 c -0.437,1.77299 -0.9065,3.5527 -1.3125,5.3457 -0.306,1.311 -0.71733,2.64084 -0.73633,3.96484 -0.063,4.87 -0.75051,9.51178 -3.35351,13.80078 -1.086,1.799 -1.70447,4.24536 0.14453,5.81836 2.017,1.724 1.77915,3.60307 1.41015,5.66406 -1.155,6.487 -2.32873,12.96069 -3.55273,19.42969 -0.212,1.124 -0.55597,2.2493 -1.04297,3.2793 -1.686,3.541 -2.25842,7.34214 -3.10742,11.11914 -0.905,4.059 0.97881,6.63155 3.38281,9.18555 1.455,1.555 2.91581,1.71722 4.38281,0.19922 1.424,-1.467 2.89805,-3.18836 3.49805,-5.06836 1.236,-3.896 2.5645,-7.71821 4.3125,-11.40821 0.437,-0.937 0.68139,-1.98409 0.90039,-2.99609 0.855,-3.989 1.66024,-7.98752 2.49024,-11.97852 0.78,-3.777 1.56893,-7.5485 2.46093,-11.8125 3.334,1.561 4.94369,-0.62426 6.67969,-2.69726 0.387,-0.474 1.12405,-0.65355 1.87305,-1.06055 0.7,1.86 1.05636,3.56378 1.94336,4.92578 0.887,1.354 2.32128,2.36002 3.48828,3.54102 l 0.71875,1.02148 c 2.635,4.877 5.5505,9.68753 5.9375,15.39453 0.243,3.546 2.01095,6.08169 4.62695,8.17969 3.097,2.479 4.85295,5.8242 5.62695,9.5332 1.074,5.083 3.63465,9.33632 6.68165,13.32032 1.355,1.772 1.99737,3.56322 2.23437,5.69922 0.194,1.748 0.35,3.63425 1.125,5.15625 1.298,2.555 2.28995,5.08346 2.50195,7.98046 0.15,2.117 1.82455,3.37916 3.81055,3.41016 2.21,0.025 3.29113,-0.89583 3.82813,-3.29883 0.093,-0.399 0.10482,-0.82326 0.17382,-1.44726 3.141,0.05 4.69571,-0.78141 5.09571,-3.19141 0.549,-3.297 0.90528,-6.6432 -0.38672,-9.9082 -0.618,-1.555 -1.12444,-3.1541 -1.64844,-4.7461 -3.072,-9.342 -6.02511,-18.68634 -6.53711,-28.65234 -0.132,-2.354 -1.40594,-4.82753 -2.71094,-6.89453 -2.217,-3.496 -3.88978,-7.03617 -4.55078,-11.20117 -0.899,-5.633 -3.20436,-7.61283 -8.81836,-8.54883 -2.11,-0.356 -4.01961,-1.00463 -5.34961,-2.89063 -3.016,-4.276 -6.11901,-8.49242 -9.16601,-12.73242 -0.431,-0.6 -0.76272,-1.25376 -1.13672,-1.88476 -1.018,-1.686 -1.96769,-3.41674 -3.05469,-5.05274 -2.198,-3.328 -0.97903,-7.2424 2.79297,-8.6914 2.347,-0.893 4.70783,-1.72991 7.04883,-2.62891 6.668,-2.554 11.29539,-6.88733 13.02539,-14.11133 1.011,-4.189 3.17783,-7.74262 7.54883,-9.39062 0.88,-0.331 1.66062,-0.90402 2.51562,-1.29102 4.365,-2.017 7.50488,-5.26508 9.54688,-9.58008 0.793,-1.667 2.08565,-2.74592 3.47265,-3.91992 2.947,-2.491003 5.66444,-5.257187 8.39844,-7.992187 0.824,-0.818 1.35341,-1.880906 0.69141,-3.128906 -0.613,-1.165 -1.60452,-1.675891 -2.85352,-1.462891 -2.242,0.375 -4.58992,0.561438 -6.66992,1.398438 -2.497,0.999 -4.97466,2.328562 -7.09766,3.976562 -6.351,4.933 -12.55848,10.065684 -18.77148,15.179684 -1.542,1.274 -2.88428,2.84091 -5.11328,2.62891 -1.923,-0.181 -3.47739,0.5748 -4.90039,1.7168 -2.286,1.823 -4.4976,3.75864 -6.8086,5.55664 -1.062,0.825 -2.20945,1.59972 -3.43945,2.13672 -2.066,0.912 -4.227,1.61701 -6.375,2.41601 -1.442,-2.541 -1.56139,-5.19426 -0.15039,-7.94726 0.575,-1.111 1.06172,-2.31716 1.26172,-3.53516 0.593,-3.584 1.39878,-7.15506 -0.69922,-10.66406 -0.63,-1.049 -0.41825,-2.616987 -0.53125,-3.958987 -0.15,-1.761 0.24506,-3.77114 -0.46094,-5.244141 -1.187,-2.453999 -0.74975,-4.595718 0.0312,-6.886718 0.299,-0.893 0.62419,-1.780547 0.86719,-2.685547 1.081,-3.99 1.43047,-8.036281 0.60547,-12.113281 -0.56563,-2.825625 -2.29815,-4.436338 -4.41992,-4.5625 z m 572.875,11.390625 c -0.43904,-0.0088 -0.90011,0.02506 -1.38086,0.101562 -3.441,0.549 -5.50114,2.759781 -6.86914,5.800781 -0.979,2.179 -2.03999,4.320329 -3.08399,6.486328 -2.672,5.545001 -5.48739,11.020208 -6.27539,17.283208 -0.28,2.242 -1.14148,4.42203 -1.89648,6.58203 -1.167,3.378 -2.12355,6.79934 -2.06055,10.40234 0.037,2.46 -0.50075,4.74703 -1.59375,6.95703 -1.474,2.997 -1.86708,6.11899 -1.20508,9.45899 0.743,3.747 -0.41934,5.0777 -4.15234,5.0957 -2.036,0.006 -3.98733,0.19255 -5.61133,1.56055 -1.43,1.205 -3.09106,1.65471 -4.91406,1.76171 -0.833,0.049 -1.67742,0.18058 -2.48242,0.39258 -2.397,0.63 -3.40174,2.2986 -2.92774,4.6836 0.549,2.772 2.22825,4.33984 5.03125,4.08984 2.448,-0.218 4.43956,0.65466 6.60156,1.47266 3.253,1.236 5.73774,4.28301 9.80274,3.79101 -0.256,0.805 -0.31822,1.34944 -0.57422,1.77344 -1.637,2.791 -2.2418,5.78109 -2.3418,8.99609 -0.05,1.462 -0.76715,3.01727 -1.53515,4.32227 -1.03,1.761 -1.36008,3.52025 -0.83008,5.40625 0.418,1.504 0.89815,3.03576 1.66015,4.38476 0.905,1.60401 0.95483,2.9154 0.17383,4.6504 -1.667,3.747 -2.11583,7.64409 -0.0488,11.49609 0.33,0.624 0.5925,1.39698 0.5625,2.08398 -0.231,4.483 0.13,9.14753 -1,13.39453 -1.58,5.90701 -1.71807,11.77071 -1.58007,17.72071 0.063,2.723 0.62521,5.44636 2.32421,7.69336 1.62901,2.148 3.65868,1.96543 5.01368,-0.35157 0.313,-0.531 0.47997,-1.1529 0.66797,-1.7539 0.917,-2.984 1.82212,-5.97538 2.70312,-8.98438 0.468,-1.599 1.06758,-3.18917 1.26758,-4.82617 0.838,-7.043 1.6363,-14.10011 2.2793,-21.16211 0.355,-3.921 0.97898,-7.66617 3.33398,-10.95117 0.53,-0.742 1.00522,-1.67955 1.07422,-2.56055 0.225,-3.01 0.64286,-6.06372 -0.49414,-9.01172 -0.524,-1.348 -0.46214,-2.6352 0.25586,-3.9082 2.148,-3.827 2.35408,-7.92392 1.83008,-12.16992 -0.243,-1.936 -0.21265,-3.91514 -0.30665,-5.86914 l 0.76368,-0.55469 c 1.086,0.506 2.37965,0.77969 3.22265,1.55469 3.59,3.303 7.96089,3.6418 12.33789,2.9668 2.423,-0.38 4.23975,-0.006 6.09375,1.39257 2.398,1.816 5.15097,2.7531 8.16797,2.8711 4.239,0.149 5.85583,-1.30425 6.04883,-5.40625 0.856,-0.618 1.76283,-1.1608 2.54883,-1.8418 2.154,-1.88 2.35389,-4.20348 0.33789,-6.27148 -0.986,-1.018 -2.27852,-1.89163 -3.60352,-2.39063 -1.741,-0.656 -3.62742,-1.01286 -5.48242,-1.25586 -1.329,-0.174 -2.32798,-0.62429 -3.20898,-1.65429 -1.717,-2.029 -4.00844,-2.9521 -6.64844,-2.9961 -1.979,-0.031 -3.96623,-0.008 -5.99023,-0.008 -2.666,-3.671 -3.48327,-3.93153 -8.44727,-3.26953 -2.129,0.274 -4.31378,0.81161 -6.80078,-0.27539 0.507,-1.611 0.83939,-3.25285 1.52539,-4.71485 2.061,-4.395 3.4505,-8.99847 4.3125,-13.73046 0.938,-5.151 1.93709,-10.25194 4.37109,-14.96094 l 0.1875,-0.59961 c 0.544,-3.615 0.64988,-7.09327 -2.45312,-9.82227 -2.473,-2.167 -2.52872,-2.73335 -0.88672,-5.568357 1.68,-2.897 3.5092,-5.7145 5.0332,-8.6875 0.887,-1.729 1.65352,-3.6585 1.85352,-5.5625 0.33862,-3.348625 -1.62789,-5.44592 -4.70117,-5.507812 z m -89.60547,12.945312 c -1.916,-0.024 -3.68949,1.348766 -4.27149,3.509766 -0.236,0.861 -0.13697,1.822234 -0.16797,2.740234 -0.1,2.704 -0.0384,5.420327 -0.31835,8.111327 -0.531,5.189 -1.66588,10.34797 -1.79688,15.54297 -0.138,5.701 -0.97455,11.21295 -2.18555,16.75195 -0.406,1.879 -0.19431,3.92086 -0.0703,5.88086 0.157,2.523 1.66113,4.16542 3.82813,5.35742 2.697,1.474 3.34054,3.30347 2.18554,6.23047 -0.644,1.655 -1.52887,3.2101 -2.17187,4.8711 -1.105,2.848 -1.28781,5.7809 0.24218,8.5039 1.654,2.954 1.70444,5.78844 0.77344,9.02344 -0.73,2.547 -1.02854,5.41234 -0.68554,8.02734 0.442,3.373 0.47436,6.65833 0.0684,9.98633 -0.169,1.348 -0.33025,2.7395 -0.15626,4.0625 0.14401,1.055 0.58097,2.2613 1.29297,3.0293 2.666,2.872 6.93713,2.18989 8.45313,-1.53711 0.875,-2.166 1.22958,-4.66372 1.26758,-7.01172 0.063,-3.641 0.79997,-6.96873 2.29297,-10.30273 1.087,-2.423 1.47837,-5.19575 1.98437,-7.84375 0.299,-1.598 0.21425,-3.2575 0.28125,-4.4375 0.743,0.55 1.66655,1.18704 2.56055,1.87304 4.233,3.24 7.28662,7.44125 9.89062,12.03125 0.975,1.718 2.11077,3.43574 3.50977,4.80274 2.997,2.923 4.14045,6.3617 3.93945,10.4707 -0.094,1.961 -0.0822,4.0911 0.5918,5.87109 1.3,3.452 2.17505,6.96132 2.87304,10.57032 0.65,3.303 1.9491,6.42459 4.4961,8.80859 2.679,2.507 6.33222,2.16366 8.44922,-0.77734 1.037,-1.436 1.37418,-3.12125 0.86718,-4.78125 -0.816,-2.686 -1.73512,-5.35722 -2.82812,-7.94922 -1.793,-4.202 -2.81513,-8.37389 -2.07812,-13.08789 1.15399,-7.418 -0.48877,-14.468 -5.00977,-20.5 -1.936,-2.578 -2.6418,-5.01994 -2.2168,-8.08594 0.27,-1.948 0.25057,-3.95225 -0.89843,-5.78125 -2.62301,-4.165 -5.13788,-8.38634 -9.67188,-10.90234 -1.586,-0.874 -1.52975,-2.75292 0.0312,-3.79492 0.955,-0.63101 2.09266,-0.96144 3.09766,-1.52344 1.816,-1.005 3.72828,-1.91674 5.36328,-3.17774 2.036,-1.574 4.19551,-2.67915 6.72851,-3.16015 0.98,-0.188 1.92522,-0.70736 2.82422,-1.19336 3.06,-1.648 5.0635,-4.28908 6.8125,-7.20508 1.018,-1.698 1.38683,-3.4782 1.17383,-5.4082 -0.137,-1.248 -0.156,-2.53457 -0.5,-3.72657 -0.487,-1.673 -0.83641,-3.62912 -1.94141,-4.82812 -2.085,-2.279 -3.42817,-4.95666 -5.07617,-7.47266 -0.999,-1.542 -1.36811,-2.73562 -0.28711,-4.51562 1.592,-2.61 0.96814,-4.93911 -1.25586,-7.03711 -2.46,-2.298006 -5.27576,-3.334268 -8.63476,-2.572268 -2.804,0.63 -5.39991,-0.03197 -7.87891,-1.292968 -3.891,-1.986 -6.38805,-1.792313 -9.24805,1.429687 -2.903,3.278009 -5.46511,6.869129 -8.1621,10.328129 -0.425,0.542 -0.81169,1.11768 -1.30469,1.80468 -1.63,-1.499 -1.49894,-3.30239 -1.71094,-5.02539 -0.475,-3.834 -0.85991,-7.687981 -1.62891,-11.458981 -0.455,-2.241 -1.96765,-3.215516 -3.72265,-3.228516 z m -598.1543,16.951177 c -1.84692,-0.0156 -3.56112,0.49089 -5.15625,1.55664 -0.637,0.431 -1.48008,0.83696 -2.20508,0.79296 -3.802,-0.231 -5.21928,0.82329 -4.73828,4.48829 0.512,3.971 0.0364,7.69395 -1.34961,11.37695 -0.219,0.581 -0.27525,1.21794 -0.40625,1.83594 -0.475,2.254 -0.16192,4.17709 2.20508,5.24609 1.505,0.68 1.85266,2.0152 1.59766,3.4082 -0.244,1.312 -0.78711,2.57913 -1.28711,3.82813 -0.849,2.136 -1.89696,4.19533 -2.62696,6.36133 -1.193,3.566 -0.82423,6.83854 2.38477,9.31054 1.255,0.968 1.90494,2.23588 1.83594,3.79688 -0.137,3.123 -0.14422,6.26365 -0.57422,9.34765 -0.287,2.11 -0.68114,4.16454 0.25586,6.14454 0.855,1.798 0.99169,3.62895 0.55468,5.50195 -0.531,2.298 -0.0494,4.35672 1.22461,6.26172 1.155,1.718 1.57358,3.6102 1.51758,5.6582 -0.037,1.88 -0.006,3.76539 -0.006,5.65039 h -0.0879 c 0,2.197 -0.0685,4.40061 0.0195,6.59961 0.106,2.66 0.6981,5.20722 2.6211,7.19922 2.129,2.198 4.67273,1.94181 6.30273,-0.61719 0.43,-0.699 0.83002,-1.51836 0.91602,-2.31836 0.281,-2.478 0.70639,-5.00079 0.52539,-7.46679 -0.419,-5.97 0.18045,-11.68788 3.06445,-17.04688 0.493,-0.898 0.64272,-1.97798 1.01172,-2.95898 1.567,-4.083 1.07978,-7.99907 -0.94922,-11.78907 l -0.29297,-0.55664 c -1.024,-2.035 -0.98728,-3.98208 0.26172,-5.95508 1.005,-1.586 1.76141,-3.34148 2.81641,-4.89648 2.392,-3.49 2.05448,-8.01223 -2.60352,-10.74023 -2.586,-1.512 -3.23555,-3.54636 -3.31054,-6.19336 -0.119,-3.934 0.55721,-7.69338 1.94921,-11.35938 1.031,-2.71 1.56686,-5.5759 0.25586,-8.2539 -1.456,-2.973 -1.79193,-5.94324 -1.21093,-9.11524 v -1.25586 c -0.163,-2.404 -1.29885,-3.57773 -3.71485,-3.80273 -0.26925,-0.0234 -0.53693,-0.0368 -0.80078,-0.0391 z m 555.80273,1.18554 c -3.6688,0.0709 -7.08617,1.40563 -10.12304,4.20313 -3.122,2.879 -5.5325,6.51848 -8.3125,9.77148 -0.861,1.005 -1.79653,2.03538 -2.89453,2.73438 -4.864,3.091 -8.65547,6.96906 -9.60547,12.91406 -0.562,3.478 -1.77781,6.49248 -4.13281,9.27148 -3.022,3.571 -3.26597,8.93953 -0.66797,12.26953 3.428,4.401 4.04565,9.2593 3.34765,14.5293 -0.275,2.067 -0.40653,4.15192 -0.64453,6.66992 0.268,1.872 0.35047,4.203 0.98047,6.375 0.729,2.522 2.7417,3.84535 4.9707,3.27735 2.604,-0.675 4.41386,0.53072 6.38086,1.76172 1.567,0.986 3.18967,1.90948 4.88867,2.64648 0.99901,0.438 1.70547,0.89869 2.23047,1.92969 1.679,3.29 3.73922,4.38887 7.44922,3.67187 2.847,-0.556 5.56746,-1.64694 8.56446,-1.08593 0.662,0.125 1.51332,-0.13133 2.11132,-0.48633 3.047,-1.806 6.53208,-3.21135 8.95508,-5.65235 4.32,-4.352 8.26461,-9.15929 11.84961,-14.15429 2.141,-2.985 3.72361,-6.50752 2.72461,-10.60352 -0.948,-3.889 -3.07867,-7.11045 -5.51367,-10.06445 -2.292,-2.766 -2.85255,-5.41177 -1.31055,-8.63477 0.98,-2.072 1.99166,-4.177 2.59766,-6.375 1.505,-5.395 1.39264,-10.7154 -1.31836,-15.8164 -0.567,-1.068 -0.83594,-2.36113 -0.96094,-3.57813 -0.287,-2.591 -1.17465,-4.74572 -3.09765,-6.63672 -3.39701,-3.347 -7.0561,-6.13914 -11.6211,-7.74414 -2.35537,-0.82425 -4.64637,-1.23592 -6.84766,-1.19336 z m -232.46679,0.79883 c -1.54205,-0.0664 -2.92067,0.72242 -4.04492,1.98242 -1.03,1.156 -2.10416,2.42185 -2.66016,3.83985 -0.987,2.51 -1.6918,5.15225 -2.3418,7.78125 -1.267,5.151 -2.41709,10.3399 -3.62109,15.5039 l -0.41797,1.17969 c -2.46,3.796 -3.31562,8.06703 -3.89062,12.45703 -0.293,2.278 -1.49963,3.77792 -3.64063,5.04492 -3.097,1.843 -5.98155,4.18489 -8.56055,6.71289 -2.448,2.393 -4.40836,5.28194 -6.56836,7.96094 0.062,-1.829 -0.0367,-3.68503 0.28125,-5.45703 1.111,-6.157 2.39785,-12.28931 3.58985,-18.44531 0.593,-3.072 1.238,-6.15677 1.625,-9.25977 0.193,-1.617 0.16903,-3.38964 -0.29297,-4.93164 -0.575,-1.905 -1.73613,-3.67145 -4.07813,-3.81445 -2.229,-0.15 -3.75312,1.06715 -4.82812,2.91015 -0.362,0.631 -0.68008,1.29866 -0.95508,1.97266 -2.747,6.813 -5.47644,13.63125 -8.39844,20.90625 -0.974,-4.446 -2.79029,-7.67525 -7.77929,-6.53125 -1.748,-2.904 -2.18044,-5.92005 -2.77344,-8.87305 -0.474,-2.342 -1.5907,-4.29014 -3.2207,-5.99414 -1.261,-1.318 -2.8591,-1.31772 -4.3711,-0.76172 -1.542,0.575 -2.58008,1.67974 -2.58008,3.55274 0,1.555 -0.24246,3.10892 -0.35546,4.66992 -0.188,2.591 -0.49972,5.1883 -0.51172,7.7793 -0.006,2.71 0.15479,5.43972 0.46679,8.13672 0.468,4.034 -1.99642,6.68257 -4.10742,9.89257 -1.042,-2.124 -2.08605,-3.83445 -2.74805,-5.68945 -0.44999,-1.242 -0.2501,-2.69567 -0.5371,-4.01367 -0.456,-2.036 -1.14347,-4.01578 -1.60547,-6.05078 -0.524,-2.329 -0.94766,-4.68339 -1.34766,-7.02539 -0.193,-1.136 -0.13775,-2.30274 -0.34375,-3.42774 -0.999,-5.432 -2.55327,-10.76423 -2.57226,-16.36523 -0.006,-1.749 -0.25608,-3.5541 -0.70508,-5.2461 -0.513,-1.904 -1.92991,-2.90912 -3.37891,-2.57812 -1.854,0.431 -3.71584,1.05498 -4.71484,2.83398 -1.011,1.811 -1.95402,3.68872 -2.66602,5.63672 -0.75,2.055 -1.19291,4.22271 -1.75391,6.34571 -0.387,1.486 -1.21723,2.40326 -2.86523,2.32226 -3.016,-0.137 -4.53342,1.7546 -5.60742,4.1836 -0.755,1.72399 -1.29102,3.54603 -2.16602,5.20703 -2.304,4.414 -2.88547,8.90347 -0.98047,13.60547 0.649,1.604 0.79836,3.24162 0.19336,4.89062 -2.08,5.675 -3.07822,11.75698 -6.44922,16.95898 -0.668,1.03 -1.25546,2.27657 -1.35546,3.47657 -0.175,2.029 -0.64875,4.54731 0.28125,6.07031 1.68,2.704 1.99801,5.38894 1.91601,8.33594 -0.025,0.618 0.063,1.26718 0.20703,1.86718 0.487,1.923 1.99835,3.29482 3.65235,3.38282 1.823,0.087 2.9479,-0.84799 3.6289,-3.20899 0.505,-1.723 1.11013,-3.31595 2.45313,-4.62695 1.562,-1.537 1.894,-3.56006 1.125,-5.53906 -0.618,-1.623 -0.15081,-2.82746 0.74219,-4.06446 0.675,-0.93 1.48071,-1.79787 2.01171,-2.79687 0.512,-0.98 1.05483,-2.09734 1.04883,-3.15235 -0.031,-3.52099 1.85853,-6.03271 3.89453,-8.76171 0.712,0.543 1.13864,1.06286 1.68164,1.25586 2.491,0.855 3.37632,2.92139 4.07032,5.15039 0.98,3.197 1.73498,6.47626 2.95898,9.57226 1.673,4.265 3.68403,8.39317 5.58203,12.57617 l 0.77539,0.97852 c 1.037,1.099 2.25399,1.39925 3.70899,0.90625 1.917,-0.631 3.06512,-1.93716 3.07812,-3.91016 0.012,-4.17 -0.13114,-8.34743 -0.24414,-12.52343 -0.063,-2.336 -0.2168,-4.678 -0.3418,-7.375 2.20401,1.175 3.07177,2.51148 2.88477,4.52148 -0.088,0.931 0.0737,1.89841 -0.0703,2.81641 -0.568,3.608 1.77962,5.58797 4.14062,7.54296 0.905,0.743 2.02863,0.75508 2.89063,-0.0449 2.236,-2.085 4.42805,-4.22133 3.99805,-7.73632 -0.11901,-0.91101 -0.14493,-1.90416 0.0801,-2.78516 0.868,-3.378 0.55042,-6.62359 -0.76757,-9.8086 -0.438,-1.049 -0.62961,-2.05398 0.0254,-3.33398 1.523,1.387 3.10806,2.3652 4.03906,3.7832 2.192,3.297 4.12806,6.76924 6.03906,10.24024 1.511,2.741 2.79081,5.60119 4.25781,8.36719 0.768,1.442 1.90485,2.58401 3.71485,2.41601 1.836,-0.175 3.06612,-1.16244 3.57812,-3.02344 0.318,-1.167 0.78605,-2.29042 1.24805,-3.60742 l 0.40625,0.44922 0.125,0.92383 c 0.255,4.271 2.57328,6.90075 6.48828,8.34375 1.367,0.499 2.70284,1.09869 3.96484,1.80469 5.12,2.865 10.92022,1.79681 14.57422,-2.74219 0.575,-0.711 1.11674,-1.44891 1.92774,-2.50391 0.344,1.586 0.61761,2.7911 0.84961,3.9961 0.599,2.979 2.05551,5.48378 4.22851,7.55078 2.049,1.948 4.8385,2.092 7.1875,0.5 2.066,-1.405 3.15846,-3.21732 2.93945,-5.82031 -0.39699,-4.64401 -1.54521,-9.0648 -3.32421,-13.3418 -1.742,-4.171 -3.29077,-8.34967 -3.00977,-13.01367 0.194,-3.216 -0.0819,-6.45574 0.0371,-9.67774 0.094,-2.604 0.19344,-5.25144 0.77344,-7.77344 1.03,-4.471 2.38668,-8.87811 3.67969,-13.28711 0.60599,-2.054 0.47371,-4.00239 -0.86329,-5.65039 -1.898,-2.354 -2.10393,-4.98893 -1.46093,-7.71093 0.8,-3.347 1.87471,-6.6378 2.76172,-9.9668 0.31799,-1.192 0.67918,-2.4462 0.61718,-3.6582 -0.094,-2.066 -0.91098,-3.97832 -2.95898,-4.82032 -0.5465,-0.2265 -1.07974,-0.3431 -1.59375,-0.36523 z m -261.95313,0.66016 c -0.23078,-0.005 -0.465,7.5e-4 -0.70312,0.0156 -4.727,0.306 -8.99828,1.89274 -12.61328,4.92774 -1.117,0.937 -2.22135,2.4657 -2.40235,3.8457 -0.443,3.484 -2.35531,5.1075 -5.57031,5.6875 l -1.49219,0.46289 c -6.256,1.792 -8.32368,4.33217 -9.17968,10.70117 -0.35,2.66 -0.70669,5.52622 -1.92969,7.82422 -1.749,3.247 -2.66524,6.52495 -2.86524,10.12695 -0.125,2.38 -1.04887,4.43308 -2.67187,6.20508 -1.13,1.23 -2.4092,2.42486 -3.1582,3.88086 -0.987,1.904 -1.83765,3.99547 -2.18165,6.10547 -0.437,2.629 1.28169,4.34492 3.92969,4.54492 0.475,0.037 0.94866,0.006 1.72266,0.006 -0.681,1.169 -1.36055,1.99127 -1.68555,2.94727 -0.631,1.854 -1.36925,3.75392 -1.53125,5.66992 -0.256,2.997 1.16671,4.39581 4.22071,4.63281 1.46,0.119 2.92948,0.051 4.39648,0.082 3.048,0.075 4.0012,1.08045 3.4082,4.06446 -0.537,2.75399 0.013,5.12454 2.29297,6.68554 2.104,1.456 2.53594,3.35449 2.58594,5.64649 0.031,1.455 0.18094,2.94098 0.58594,4.33398 0.306,1.048 0.9424,2.09916 1.6914,2.91016 1.286,1.411 3.08289,1.56611 4.46289,0.28711 1.192,-1.117 2.25416,-2.48002 3.03516,-3.91602 1.192,-2.198 1.9873,-4.62008 3.1543,-6.83008 0.924,-1.735 2.00253,-3.43673 3.26953,-4.92773 1.105,-1.306 2.48612,-1.90316 4.45312,-1.16016 1.199,0.455 2.9036,0.15497 4.1836,-0.33203 1.53,-0.58 2.98598,-1.56116 4.20898,-2.66016 2.129,-1.929 4.39494,-2.45823 7.21094,-1.99023 6.463,1.074 12.40736,-3.1983 13.44336,-9.6543 0.218,-1.33 -0.0641,-3.00253 -0.74414,-4.14453 -1.44,-2.44 -3.7801,-2.41625 -6.7461,-0.28125 -3.74,2.691 -6.18265,2.71636 -9.97265,0.0684 -1.118,-0.78 -2.17274,-1.64844 -3.30274,-2.39844 -1.979,-1.323 -4.05203,-1.76032 -6.08203,-0.11132 -1.23,0.993 -2.47901,0.96892 -3.79101,0.29492 -2.204,-1.143 -4.26643,-0.70503 -6.23243,0.54297 -1.504,0.943 -2.90164,2.06612 -4.43164,2.95312 -2.11,1.211 -4.0647,0.0949 -4.0957,-2.32812 -0.013,-0.813 0.14852,-1.68769 0.47852,-2.42969 0.674,-1.523 1.47496,-2.99045 2.29296,-4.43945 1.03,-1.811 2.33516,-3.50335 3.16016,-5.40235 1.892,-4.37 1.19781,-6.52859 -2.61719,-9.05859 -0.431,-0.287 -0.86654,-0.56367 -1.56054,-1.01367 0.543,-4.046 3.13971,-6.42452 5.88672,-8.72852 3.68399,-3.085 7.40612,-6.13205 10.95312,-9.37305 1.986,-1.817 3.30202,-4.08882 1.91602,-6.92382 1.979,-1.249 3.97128,-1.72408 6.11328,-1.70508 1.78,0.013 3.56084,0.0202 5.33984,-0.0488 4.496,-0.175 8.41578,-1.60428 11.17578,-5.36328 1.168,-1.599 1.70961,-3.42274 0.72461,-5.30274 -0.899,-1.729 -2.44625,-2.51668 -4.40625,-2.42968 -3.441,0.149 -6.88841,0.19986 -10.3164,0.50586 -1.55501,0.143 -2.80907,0.15617 -3.91407,-1.17383 -1.05962,-1.27313 -2.48414,-1.7998 -4.09961,-1.83203 z m 560.47852,8.16797 c 1.0067,-0.0332 2.24655,0.049 3.81055,0.19726 -4.596,3.103 -4.56413,6.80503 -3.57813,10.95703 0.315,1.318 -0.3978,3.06124 -1.0918,4.36524 -0.811,1.511 -2.13079,2.74056 -3.34179,4.22656 -0.737,-0.518 -1.39702,-0.74894 -1.66602,-1.21094 -1.212,-2.085 -2.65387,-3.91375 -4.54687,-5.46875 -0.693,-0.568 -0.7048,-1.94815 -1.0918,-3.16016 3.253,-0.75499 5.05239,-2.47889 6.15039,-5.21289 1.40025,-3.4605 2.33536,-4.59365 5.35547,-4.69335 z m -72.14649,15.4375 c -0.468,2.01099 -0.98004,4.0141 -1.37304,6.0371 -0.813,4.109 0.89884,7.11791 4.21484,9.37891 0.78,0.53 1.63616,0.93761 2.41016,1.47461 1.992,1.373 2.39576,2.53389 1.63476,4.83789 -0.356,1.087 -0.86668,2.12927 -1.30468,3.19727 -1.456,3.567 -1.51693,7.06923 0.20507,10.61523 1.549,3.203 1.44772,3.25425 1.13672,6.40625 -1.931,0.188 -3.95867,0.38292 -5.76367,0.54492 -1.505,-2.335 -2.83545,-4.427 -4.18945,-6.5 -1.149,-1.736 -2.57232,-3.09918 -4.82032,-2.99218 -1.648,0.075 -2.21637,-0.8981 -2.48437,-2.2461 -0.286,-1.431 -0.52436,-2.87859 -0.81836,-4.30859 -0.83,-4.016 0.11255,-7.53191 3.18555,-10.25391 3.003,-2.661 4.20734,-5.71376 3.52734,-9.75976 -0.538,-3.197 1.72445,-5.10165 4.43945,-6.43164 z m -318.91015,9.78515 0.8125,0.20703 c 0,2.385 -0.34325,4.83272 0.0937,7.13672 0.412,2.122 1.66637,4.09036 2.73437,6.56836 h -8.87304 c 1.817,-4.839 3.52842,-9.37211 5.23242,-13.91211 z m 79.36328,24.53125 c 0.525,5.047 1.34784,9.50588 -2.91016,13.04688 -1.055,0.874 -1.84865,2.06534 -2.84765,3.02734 -1.711,1.66 -3.85246,1.36678 -4.18946,-0.82422 -0.318,-2.029 0.23136,-4.2205 0.56836,-6.3125 0.331,-2.049 1.17846,-3.51687 3.43946,-4.42187 2.017,-0.824 3.61045,-2.69163 5.93945,-4.51563 z m 390.50195,94.39258 v 0.59961 h 1.73047 v 4.50781 h 0.69922 v -4.50781 h 1.72852 v -0.59961 z m 4.63281,0 v 5.10742 h 0.65626 v -3.58398 l -0.0371,-0.57227 v -0.15234 l 1.5039,4.30859 h 0.68164 l 1.4668,-4.30859 v 0.76953 l -0.006,0.55078 v 2.98828 h 0.64844 v -5.10742 h -0.98047 l -1.4668,4.31445 -1.48047,-4.31445 z" />
</svg>
